# xmcd CD database file
#
# Track frame offsets:
#	150
#	17928
#	40397
#	68676
#	89977
#	112250
#	139564
#	169636
#	198787
#	220372
#	240852
#
# Disc length: 3913 seconds
#
# Revision: 0
# Processed by: cddbd v1.5.1PL0 Copyright (c) Steve Scherf et al.
# Submitted via: CDex 1.51
#
DISCID=9b0f470b
DTITLE=Nash Didan  - Idaylu
DYEAR=1988
DGENRE=New Age
TTITLE0=Nash Didan Idaylu
TTITLE1=The Wind And The Bridge
TTITLE2=A Story Of A Stranger
TTITLE3=Heaven Center
TTITLE4=Visionary Dream
TTITLE5=Peschanulo
TTITLE6=Siren Weep
TTITLE7=Stillness
TTITLE8=Take Me Away
TTITLE9=The Magical Desert
TTITLE10=Gerjenie
EXTD=YEAR: 1988
EXTT0=
EXTT1=
EXTT2=
EXTT3=
EXTT4=
EXTT5=
EXTT6=
EXTT7=
EXTT8=
EXTT9=
EXTT10=
PLAYORDER=
